<?xml version="1.0" encoding="UTF-8"?> <svg xmlns="http://www.w3.org/2000/svg" width="68" height="24" viewBox="0 0 68 24"><path fill="#DEDEDF" fill-rule="nonzero" d="M43.19 17.878v4.67H30.931v-4.83h2.314v-.144-4.925c-.001-.48-.112-.932-.419-1.323-.353-.451-.843-.688-1.406-.79-1.02-.182-1.974-.037-2.809.586-.762.569-1.156 1.338-1.173 2.254-.026 1.43-.006 2.862-.006 4.293.793.041 1.579.041 2.373.041v4.839H17.272v-4.83h2.254v-7.257H17.27V5.626h9.889V8.96c.147-.151.265-.262.37-.382.768-.873 1.665-1.588 2.75-2.072a8.083 8.083 0 0 1 2.376-.638c1.396-.162 2.784-.132 4.157.181 1.003.23 1.925.622 2.7 1.295a4.47 4.47 0 0 1 1.486 2.588c.09.461.137.929.141 1.398.015 2.062.006 4.125.006 6.188v.187h2.043v.173zM3.485 5.66H.5V.475h16.009v5.156h-2.987v12.09h2.985v4.828H.503v-4.817h2.983V5.661zm64.097 14.312c-.006 1.433-1.209 2.584-2.691 2.576-1.46-.008-2.653-1.178-2.645-2.591.008-1.42 1.213-2.564 2.693-2.56 1.448.005 2.65 1.175 2.643 2.575zM55.466 14.01c-.077-2.481-1.071-3.684-2.98-3.61-2.865.11-2.69 2.665-2.807 4.61-.116 1.943.234 4.331 2.923 4.331 1.793 0 2.787-.833 2.981-2.499h6.664c0 .593-.195 1.315-.584 2.166-.994 2.055-2.982 4.277-9.06 4.277-6.08 0-8.477-2.722-9.003-3.277-.526-.556-2.046-2.666-1.929-4.999.117-2.332.643-3.61 1.695-5.054 1.053-1.444 5.027-4.276 11.457-3.443 4.287.555 6.762 2.832 7.424 6.831l-6.78.667z"></path></svg> 