<?xml version="1.0" encoding="UTF-8"?> <svg xmlns="http://www.w3.org/2000/svg" xmlns:xlink="http://www.w3.org/1999/xlink" width="50px" height="38px" viewBox="0 0 50 38"><!-- Generator: sketchtool 53 (72520) - https://sketchapp.com --><title>86A8D64D-123B-4318-9D1D-416679CCFACE</title><desc>Created with sketchtool.</desc><g id="Design" stroke="none" stroke-width="1" fill="none" fill-rule="evenodd"><g id="Home-(Desktop)" transform="translate(-579.000000, -631.000000)" fill="#DEDEDF" fill-rule="nonzero"><g id="Header-01"><g id="Group-7"><g id="Group-27"><g id="Group-26" transform="translate(262.000000, 598.000000)"><g id="Group" transform="translate(0.000000, 33.000000)"><path d="M323.456904,23.5206518 C323.426694,23.9281656 323.410565,24.3442181 323.410565,24.7626176 L317,24.7626176 C317,24.3313351 317.006442,23.9000526 317.031259,23.4775585 C317.701827,10.4000158 328.499469,0 341.738799,0 C355.060071,0 365.927821,10.5421787 366.462468,23.7448568 C366.475501,24.079067 366.484089,24.421816 366.484089,24.7626176 L360.063887,24.7626176 C360.063887,24.3831669 360.053201,24.0059632 360.029382,23.632954 C359.443054,14.0413246 351.4662,6.4202523 341.738849,6.4202523 C332.053493,6.4202523 324.097212,13.9787569 323.456904,23.5206518 Z M331.72897,23.5897109 C331.682681,23.9776505 331.659062,24.3658397 331.659062,24.7626176 L325.247248,24.7626176 C325.247248,24.4003443 325.259183,24.0338265 325.283001,23.6715532 C325.841167,15.06318 332.994505,8.25279106 341.738799,8.25279106 C350.495976,8.25279106 357.66005,15.0826544 358.201038,23.7126991 C358.220512,24.0595926 358.231248,24.408933 358.231248,24.7626176 L351.819635,24.7626176 C351.819635,24.3917556 351.802457,24.0295322 351.761511,23.6715532 C351.213832,18.6225466 346.934413,14.6728436 341.738799,14.6728436 C336.573246,14.6728436 332.307958,18.5771564 331.72897,23.5897109 Z M341.738799,16.5055322 C345.904018,16.5055322 349.331808,19.5841813 349.903057,23.5897109 C349.957085,23.9712089 349.987296,24.3615953 349.987296,24.7626176 L333.491401,24.7626176 C333.491401,24.2235269 333.544331,23.7062076 333.641204,23.2016715 C334.367898,19.3878397 337.716991,16.5055322 341.738799,16.5055322 Z M317.03021,27.9574139 L317.03021,30.2557898 L319.765911,30.2557898 L319.765911,37.8185388 L322.386413,37.8185388 L322.386413,30.2557898 L325.099742,30.2557898 L325.099742,27.9574139 L317.03021,27.9574139 Z M334.75374,29.2208515 C335.219327,29.6735558 335.590189,30.2124468 335.853193,30.8379238 C336.118344,31.4587569 336.255314,32.1485992 336.255314,32.8945177 C336.255314,33.6426334 336.118394,34.3346229 335.853193,34.9598502 C335.590189,35.5765887 335.219327,36.119774 334.75374,36.568184 C334.2903,37.0122996 333.723146,37.3614901 333.087332,37.611661 C332.442581,37.8616321 331.749543,37.9953561 330.99928,37.9953561 C330.245821,37.9953561 329.546192,37.8616321 328.910179,37.611661 C328.267724,37.3615401 327.713603,37.0123495 327.245869,36.568184 C326.775837,36.119774 326.398534,35.5765887 326.13553,34.9598502 C325.870378,34.3346229 325.733608,33.6426334 325.733608,32.8945177 C325.733608,32.1485493 325.870378,31.4587569 326.13553,30.8379238 C326.398534,30.2124468 326.775787,29.6735558 327.245869,29.2208515 C327.713653,28.7767359 328.272018,28.423251 328.910179,28.1730802 C329.546142,27.9231091 330.245821,27.7979238 330.99928,27.7979238 C331.749543,27.7979238 332.442581,27.9231091 333.087332,28.1730802 C333.723146,28.4232011 334.285806,28.7766859 334.75374,29.2208515 Z M332.067424,35.4471091 C332.385506,35.3047464 332.659296,35.1064573 332.877059,34.8606307 C333.102313,34.614954 333.27898,34.3174455 333.398773,33.9854323 C333.529101,33.6490749 333.592767,33.2825572 333.592767,32.8945177 C333.592767,32.5022339 333.529101,32.1356662 333.398773,31.8036531 C333.27898,31.4673456 333.102363,31.1741314 332.877059,30.9284547 C332.659296,30.6825782 332.385506,30.4886334 332.067424,30.3441235 C331.75169,30.1953693 331.393711,30.1263601 330.99928,30.1263601 C330.601453,30.1263601 330.235085,30.1953693 329.923445,30.3441235 C329.603367,30.4885834 329.329477,30.6825782 329.109716,30.9284547 C328.88656,31.1741314 328.707545,31.4673456 328.583658,31.8036531 C328.463866,32.1357162 328.395905,32.5022838 328.395905,32.8945177 C328.395905,33.2868515 328.463866,33.6491248 328.583658,33.9854323 C328.707595,34.3174455 328.88656,34.614954 329.109716,34.8606307 C329.329477,35.1065072 329.603367,35.3047464 329.923445,35.4471091 C330.235085,35.5872746 330.601453,35.6627254 330.99928,35.6627254 C331.393711,35.6627254 331.75169,35.5873246 332.067424,35.4471091 Z M345.729298,29.2726833 C346.201527,29.6952273 346.567895,30.2167411 346.835393,30.8206465 C347.098197,31.419908 347.231921,32.1142444 347.231921,32.8773403 C347.231921,33.6426334 347.098247,34.3345729 346.835393,34.9424731 C346.567895,35.5461288 346.201527,36.0678922 345.729298,36.4948804 C345.252975,36.9218686 344.69441,37.2494376 344.045564,37.4779369 C343.400962,37.7064363 342.691645,37.8142444 341.928549,37.8142444 L337.779459,37.8142444 L337.779459,27.9574139 L341.914418,27.9574139 C342.685204,27.9574139 343.400962,28.0697162 344.045564,28.2982155 C344.69441,28.5267648 345.252975,28.8499895 345.729298,29.2726833 Z M344.571572,32.8773403 C344.571572,32.5086754 344.513448,32.157138 344.399248,31.842502 C344.295735,31.5299133 344.1319,31.2538765 343.911989,31.0146413 C343.694226,30.7818476 343.418189,30.5919474 343.092767,30.4583732 C342.764999,30.3290933 342.372715,30.2557898 341.934991,30.2557898 L340.399961,30.2557898 L340.399961,35.511774 L341.923156,35.511774 C342.342455,35.511774 342.721855,35.4406675 343.042983,35.2983049 C343.373049,35.1538449 343.65328,34.9641445 343.877485,34.7270565 C344.097396,34.4897687 344.269769,34.2096373 344.39041,33.8904573 C344.509154,33.5714271 344.571572,33.2351196 344.571572,32.8773403 Z M354.312005,27.9574139 L354.329133,27.9964625 L358.028715,37.8142444 L355.070807,37.8142444 L354.589989,36.4129382 L350.823745,36.4129382 L350.338633,37.8142444 L347.378578,37.8142444 L347.406691,37.7452352 L351.086749,27.9574139 L354.312005,27.9574139 Z M353.863545,34.1146623 L352.695033,30.6652011 L351.530865,34.1146623 L353.863545,34.1146623 Z M364.015537,27.9574139 L366.984181,27.9574139 L363.263127,33.8475138 L363.263127,37.8185388 L360.646021,37.8185388 L360.646021,33.8475138 L356.90764,27.9574139 L359.867695,27.9574139 L361.952352,31.5018502 L364.015537,27.9574139 Z" id="ModelHealth-Home-FeaturedIn-04"></path></g></g></g></g></g></g></g></svg> 