<?xml version="1.0" encoding="UTF-8"?> <svg xmlns="http://www.w3.org/2000/svg" xmlns:xlink="http://www.w3.org/1999/xlink" width="81px" height="34px" viewBox="0 0 81 34"><!-- Generator: sketchtool 53 (72520) - https://sketchapp.com --><title>C0AE9174-DBFD-41BB-922B-C3B3BD4352F1</title><desc>Created with sketchtool.</desc><g id="Design" stroke="none" stroke-width="1" fill="none" fill-rule="evenodd"><g id="Home-(Desktop)" transform="translate(-1023.000000, -633.000000)" fill="#DEDEDF" fill-rule="nonzero"><g id="Header-01"><g id="Group-7"><g id="Group-27"><g id="Group-26" transform="translate(262.000000, 598.000000)"><g id="Group" transform="translate(0.000000, 33.000000)"><path d="M786.299717,7.84692492 L784.951555,14.0730609 C784.592189,15.7335651 787.99042,16.0761061 788.188007,13.9647765 L789.482242,7.9552093 L792.449493,7.9552093 L790.993047,14.3439875 C790.004251,19.3613074 779.791006,18.5847661 781.391113,13.6403548 L782.631422,7.84692492 L786.299717,7.84692492 Z M761,18.9458578 L764.020746,2 L770.980282,2 L771.950527,10.8788875 L775.995876,2.10785296 L782.954549,2.10785296 L779.880309,19.1085001 L775.025631,19.1085001 C775.924262,14.4885105 776.553692,9.814163 777.722386,5.2485313 C775.888455,9.92244737 773.623111,14.4880791 771.573042,19.1085001 L768.497938,19.1085001 C768.066526,14.3983454 767.473335,9.68819073 767.203703,4.97803606 C766.61008,9.63383284 765.69333,14.290061 764.937927,18.9458578 L761,18.9458578 Z M800.001358,10.824961 L803.022104,10.2835391 C801.466432,7.0350078 793.644935,6.81843905 792.988758,10.6083922 C792.862354,12.21497 793.833462,13.3875474 797.897362,14.290061 C799.17391,14.7231985 798.508673,15.3729048 796.980612,15.5351157 C796.495274,15.6071614 795.380505,15.3004276 794.984901,14.5066298 L791.532743,14.9936938 C792.215668,18.1076246 800.918108,19.3349913 802.375417,15.0480517 C802.815889,12.9902171 800.981957,11.925924 798.113499,11.3124564 C796.387421,10.8793189 796.495274,9.95911738 798.059573,9.90475949 C798.850351,9.99449315 799.4979,10.301227 800.001358,10.824961 L800.001358,10.824961 Z M810.520473,11.799089 L813.972631,11.6908046 C813.558907,9.27705523 812.210745,7.8607301 809.495007,7.9008514 C805.575199,7.77401632 803.831001,9.63297002 803.07603,12.3944373 C802.657992,15.6563424 804.051884,17.686998 808.092919,17.9165091 C810.259037,17.8177158 812.111089,16.9514408 813.271586,14.3974826 L810.089061,13.9643451 C808.740036,16.960069 805.755529,15.7689409 806.9596,12.5022903 C807.319397,9.9487635 810.303904,8.81199325 810.520473,11.799089 Z M814.997234,8.11785157 L812.894101,17.7547297 L821.093515,17.7547297 L821.686706,15.4807578 L817.047303,15.4807578 L818.719887,8.22613595 L814.997234,8.11785157 L814.997234,8.11785157 Z M830.856797,17.9169405 L822.064192,17.9169405 L824.114261,8.28006243 L832.637233,8.28006243 L832.097969,10.3918235 L827.135007,10.3918235 L826.757521,11.9073733 L831.181218,12.0156577 L830.695017,14.018703 L826.325246,13.91085 L825.947761,15.7516844 L831.342998,15.7516844 L830.856797,17.9169405 L830.856797,17.9169405 Z M827.188933,22.3026735 L830.209679,21.7608202 C828.654439,18.5122889 820.832511,18.2957201 820.175902,22.0861047 C820.049498,23.6922511 821.021038,24.8648285 825.084937,25.7673421 C826.361485,26.2004796 825.696679,26.8501859 824.168187,27.0128282 C823.682849,27.0853054 822.568081,26.7777087 822.172045,25.9839109 L818.719887,26.4709749 C819.40238,29.5853371 828.10482,30.811841 829.562561,26.5257642 C830.003033,24.4679296 828.169101,23.4032051 825.300643,22.7897375 C823.574996,22.3566 823.682849,21.4363985 825.246717,21.3816092 C826.037926,21.4726371 826.685044,21.7793709 827.188933,22.3026735 L827.188933,22.3026735 Z M838.312025,22.3026735 L841.333634,21.7608202 C839.778394,18.5122889 831.956465,18.2957201 831.299857,22.0861047 C831.173453,23.6922511 832.14413,24.8648285 836.208892,25.7673421 C837.48544,26.2004796 836.819771,26.8501859 835.291279,27.0128282 C834.805941,27.0853054 833.691173,26.7777087 833.295999,25.9839109 L829.842979,26.4709749 C830.525472,29.5853371 839.228775,30.811841 840.685653,26.5257642 C841.126987,24.4679296 839.292624,23.4032051 836.424598,22.7897375 C834.698088,22.3566 834.805941,21.4363985 836.370672,21.3816092 C837.161881,21.4726371 837.808999,21.7793709 838.312025,22.3026735 L838.312025,22.3026735 Z M818.234548,28.9619469 L809.441081,28.9619469 L811.49115,19.3250688 L820.068049,19.3250688 L819.528784,21.4363985 L814.511896,21.4363985 L814.13441,22.9523797 L818.558107,23.0602327 L818.072769,25.0641408 L813.702135,24.955425 L813.325513,26.7962594 L818.719887,26.7962594 L818.234548,28.9619469 Z M785.382967,18.9458578 L784.681491,22.735811 L777.561038,22.735811 L776.967416,25.7673421 L782.469643,25.7673421 L781.930809,29.5029374 L776.374224,29.5029374 L775.241768,36 L770.224448,36 L773.137341,18.9458578 L785.382967,18.9458578 Z M786.084011,19.1624266 L789.374821,19.1624266 L787.324752,28.7993047 L783.817805,28.7993047 L786.084011,19.1624266 L786.084011,19.1624266 Z M790.291571,19.1624266 L798.976323,19.1624266 L798.490985,21.4363985 L795.739009,21.4363985 L794.229498,28.8532311 L790.662585,28.8532311 L792.287282,21.4363985 L789.749718,21.4363985 L790.291571,19.1624266 L790.291571,19.1624266 Z M797.519877,28.8532311 L799.677799,19.216353 L803.023829,19.216353 C803.994506,21.0938575 805.126099,22.9700676 805.934996,24.847572 C806.096776,23.0239941 806.582114,21.2017104 806.905673,19.3789953 L809.873355,19.3789953 L807.823286,28.9080205 L805.125236,28.9080205 C803.884927,26.940351 802.644618,24.9731129 801.727005,22.843664 C801.601464,24.8113334 800.936227,26.8864245 800.540623,28.9080205 L797.519877,28.8532311 L797.519877,28.8532311 Z M764.619977,22.9277893 C763.224791,21.1253505 764.594092,18.9609572 767.099732,19.2331781 C770.125224,19.3595818 770.403053,22.5943079 767.680844,23.7056248 L768.45566,24.911421 C768.843068,24.5744883 769.179137,24.0291837 769.463006,23.2776643 L771.516958,23.7444519 C771.155435,24.742739 770.599777,25.6758828 769.618315,26.4670922 C769.99278,26.700486 770.470785,26.7781401 771.051896,26.700486 L770.702884,28.4507239 C769.850414,28.7742828 768.946606,28.579716 767.990598,27.8665922 C765.988415,29.1634163 763.185964,28.7091396 762.25584,26.739313 C761.804152,25.1051249 762.398637,23.913134 764.619977,22.9277893 Z M765.666151,24.5995102 C764.955615,24.8717311 764.7494,25.4036619 764.968558,26.1944399 C765.549669,26.7250764 766.182551,26.7902196 766.867201,26.3881438 L765.666151,24.5995102 Z M766.789547,22.305262 C767.667902,21.8647904 767.796894,20.8923881 767.060905,20.7884179 C766.247694,20.8406187 765.962962,21.6961084 766.789547,22.305262 Z" id="ModelHealth-Home-FeaturedIn-08"></path></g></g></g></g></g></g></g></svg> 