<?xml version="1.0" encoding="UTF-8"?> <svg xmlns="http://www.w3.org/2000/svg" xmlns:xlink="http://www.w3.org/1999/xlink" width="123px" height="24px" viewBox="0 0 123 24"><!-- Generator: sketchtool 53 (72520) - https://sketchapp.com --><title>E96519DD-5B85-4651-913B-6EEBD7D706B6</title><desc>Created with sketchtool.</desc><g id="Design" stroke="none" stroke-width="1" fill="none" fill-rule="evenodd"><g id="Home-(Desktop)" transform="translate(-669.000000, -638.000000)" fill="#DEDEDF" fill-rule="nonzero"><g id="Header-01"><g id="Group-7"><g id="Group-27"><g id="Group-26" transform="translate(262.000000, 598.000000)"><g id="Group" transform="translate(0.000000, 33.000000)"><path d="M407.179092,23.2912807 L408.724773,23.0447462 L408.724773,8.77027227 L407,8.54616471 L407.089546,7 L417.885916,7 L417.617116,11.3250017 L415.466877,11.257721 L415.332477,8.54616471 L411.995066,8.54616471 L411.995066,14.9775193 L413.450877,14.9775193 L413.786958,13.4986353 L415.287624,13.5434891 L415.287624,17.9804639 L413.786958,17.9804639 L413.428612,16.4565647 L411.972639,16.4565647 L411.972639,23.2688538 L415.332477,23.2688538 L415.646131,20.3109244 L417.908343,20.378205 L418.087435,24.8822992 L407.112134,24.8822992 L407.179092,23.2912807 Z M419.095516,24.9047261 L419.162797,23.5826689 L420.372235,23.3361345 L420.372235,14.3277849 L418.961116,14.1932235 L418.961116,12.8487395 L422.500208,12.333405 L422.769008,13.0952739 L422.769008,13.6106084 C423.620101,12.7143395 424.650447,12.1764168 425.97202,12.1764168 C427.898474,12.1764168 429.331859,13.3418084 429.331859,15.649842 L429.331859,23.3137076 L430.608739,23.560242 L430.541459,24.8822992 L426.330366,24.8822992 L426.330366,16.3221647 C426.330366,15.0894924 425.882474,14.3949042 424.76242,14.3949042 C424.381647,14.3949042 424.112847,14.4621849 423.821782,14.574158 C423.642689,14.7311462 423.463274,14.9552538 423.306608,15.1569345 L423.306608,23.3585613 L424.583328,23.6050958 L424.493782,24.9271529 L419.095516,24.9271529 L419.095516,24.9047261 Z M486.763254,24.9047261 L486.808108,23.5826689 L488.017546,23.3361345 L488.017546,14.3277849 L486.606427,14.1932235 L486.606427,12.8487395 L490.145519,12.333405 L490.414319,13.0952739 L490.414319,13.6106084 C491.265412,12.7143395 492.295758,12.1764168 493.617331,12.1764168 C495.543785,12.1764168 496.97717,13.3418084 496.97717,15.649842 L496.97717,23.3137076 L498.25405,23.560242 L498.18677,24.8822992 L493.998266,24.8822992 L493.998266,16.3221647 C493.998266,15.0894924 493.550212,14.3949042 492.430158,14.3949042 C492.049385,14.3949042 491.780585,14.4621849 491.489519,14.574158 C491.310266,14.7311462 491.131012,14.9552538 490.974346,15.1569345 L490.974346,23.3585613 L492.251066,23.6050958 L492.161358,24.9271529 L486.763254,24.9271529 L486.763254,24.9047261 Z M437.283563,24.6581916 C436.790817,24.8598723 435.917297,25.0841412 434.774978,25.0841412 C433.274151,25.0841412 431.885297,24.4118185 431.885297,22.215758 L431.885297,14.3276235 L430.451913,14.1036773 L430.519032,12.5350857 L432.131832,12.467805 L432.826097,10.0700639 L434.886951,9.9803563 L434.886951,12.5573513 L437.104471,12.5573513 L436.947644,14.1261042 L434.909217,14.3502118 L434.909217,22.2380235 C434.909217,22.8879193 435.267724,23.3137076 435.939724,23.3137076 L437.149163,23.3137076 L437.283563,24.6581916 Z M521.123509,24.9047261 L521.168202,23.6050958 L522.310521,23.3361345 L522.310521,14.3277849 L520.966682,14.1932235 L520.966682,12.8487395 L524.640175,12.333405 L524.886548,13.2072471 L524.886548,13.4986353 C525.849775,12.7814588 527.148921,12.3109782 528.716867,12.3109782 L529.254306,12.7814588 L528.873533,16.1876034 L526.857694,16.120484 L526.656013,14.305358 C526.185694,14.3724773 525.73764,14.5070387 525.356867,14.7758387 L525.356867,23.3585613 L526.633587,23.6275227 L526.54404,24.9271529 L521.123509,24.9271529 L521.123509,24.9047261 Z M468.373526,24.9047261 L468.440807,23.6050958 L469.583126,23.3361345 L469.583126,14.3277849 L468.239126,14.1932235 L468.239126,12.8487395 L471.912618,12.333405 L472.158992,13.2072471 L472.158992,13.4986353 C473.122218,12.7814588 474.421365,12.3109782 475.989311,12.3109782 L476.526911,12.7814588 L476.101284,16.1876034 L474.085284,16.120484 L473.883603,14.305358 C473.413445,14.3724773 472.965392,14.5070387 472.584618,14.7758387 L472.584618,23.3585613 L473.861338,23.6275227 L473.771792,24.9271529 L468.373526,24.9271529 L468.373526,24.9047261 Z M438.179509,24.9047261 L438.24679,23.6050958 L439.389109,23.3361345 L439.389109,14.3277849 L438.045109,14.1932235 L438.045109,12.8487395 L441.718602,12.333405 L441.964975,13.2072471 L441.964975,13.4986353 C442.928202,12.7814588 444.227348,12.3109782 445.772867,12.3109782 L446.310467,12.7814588 L445.929694,16.1876034 L443.913694,16.120484 L443.712013,14.305358 C443.241694,14.3724773 442.793802,14.5070387 442.413029,14.7758387 L442.413029,23.3585613 L443.689748,23.6275227 L443.600202,24.9271529 L438.179509,24.9271529 L438.179509,24.9047261 Z M449.782279,19.4144941 C449.782279,21.5658622 450.722918,23.2241613 452.582252,23.2241613 C453.545479,23.2241613 454.307025,23.0224807 455.202971,22.5965311 L455.718145,23.7843496 C454.799771,24.5237916 453.455771,25.0839798 451.775852,25.0839798 C448.50556,25.0839798 446.624121,22.2604504 446.624121,18.6301983 C446.624121,15.5378689 447.990387,12.1539899 451.730998,12.1539899 C455.001452,12.1539899 456.233318,15.1792 456.233318,18.5406521 L455.919664,19.3473748 L449.782279,19.4144941 Z M449.737587,17.9804639 L453.500625,17.8010487 C453.433345,16.2997378 453.119852,13.9244235 451.641452,13.9244235 C451.283106,13.9244235 451.036733,13.9915429 450.588679,14.2156504 C449.98396,15.246642 449.737587,17.1064605 449.737587,17.9804639 Z M501.837835,19.4144941 C501.837835,21.5658622 502.778474,23.2241613 504.637808,23.2241613 C505.601035,23.2241613 506.362582,23.0224807 507.258366,22.5965311 L507.773539,23.7843496 C506.855328,24.5237916 505.511328,25.0839798 503.831408,25.0839798 C500.560955,25.0839798 498.679677,22.2604504 498.679677,18.6301983 C498.679677,15.5378689 500.045943,12.1539899 503.786555,12.1539899 C507.056847,12.1539899 508.288713,15.1792 508.288713,18.5406521 L507.97522,19.3473748 L501.837835,19.4144941 Z M501.792982,17.9804639 L505.55602,17.8010487 C505.488901,16.2997378 505.175247,13.9244235 503.697008,13.9244235 C503.338662,13.9244235 503.092128,13.9915429 502.644235,14.2156504 C502.039516,15.246642 501.792982,17.1064605 501.792982,17.9804639 Z M479.976296,19.4144941 C479.976296,21.5658622 480.916934,23.2241613 482.776269,23.2241613 C483.739496,23.2241613 484.501042,23.0224807 485.396827,22.5965311 L485.912,23.7843496 C484.993788,24.5237916 483.649788,25.0839798 481.969869,25.0839798 C478.699415,25.0839798 476.818138,22.2604504 476.818138,18.6301983 C476.818138,15.5378689 478.184403,12.1539899 481.925015,12.1539899 C485.195308,12.1539899 486.427334,15.1792 486.427334,18.5406521 L486.113681,19.3473748 L479.976296,19.4144941 Z M479.931442,17.9804639 L483.694642,17.8010487 C483.627361,16.2997378 483.313869,13.9244235 481.835469,13.9244235 C481.477123,13.9244235 481.230588,13.9915429 480.782696,14.2156504 C480.177976,15.246642 479.909176,17.1064605 479.931442,17.9804639 Z M516.75559,24.9047261 L516.442097,23.8292034 C515.613271,24.6133378 514.806871,25.0839798 513.552578,25.0839798 C511.626124,25.0839798 509.901513,24.1204303 509.901513,21.4537277 L509.901513,14.0141311 L508.490393,13.8795697 L508.490393,12.6919126 L512.567086,12.2212706 L512.880578,13.2969546 L512.880578,21.0950588 C512.880578,22.4619697 513.440444,23.1791462 514.538071,23.1791462 C514.851724,23.1791462 515.254924,23.1342924 515.613271,22.9998924 C515.823898,22.7887254 516.011567,22.5558432 516.173136,22.3051429 L516.173136,14.0139697 L514.717324,13.8795697 L514.717324,12.6919126 L518.838709,12.2212706 L519.152363,13.2969546 L519.152363,23.3361345 L520.429082,23.5826689 L520.272255,24.9047261 L516.75559,24.9047261 Z M462.348276,23.2912807 C461.698703,23.2912807 461.183368,23.1793076 460.780329,22.9552 L460.780329,15.0446387 C460.959422,14.7756773 461.161103,14.5293042 461.362783,14.3051966 C461.743556,14.1706353 462.079476,14.1259429 462.482514,14.1259429 C464.162595,14.1259429 464.453661,15.8289345 464.453661,18.8765714 C464.453661,21.8122353 464.005768,22.618958 463.893795,22.9550387 C463.423314,23.1791462 462.930568,23.2911193 462.348114,23.2911193 L462.348276,23.2912807 Z M467.365607,18.3389714 C467.365607,14.5518924 466.245714,12.1764168 463.445741,12.1764168 C461.586568,12.1764168 460.713049,13.2521008 460.354703,13.700316 L460.354703,13.2743664 L460.041049,12.1988437 L456.389983,12.7143395 L456.389983,14.0139697 L457.801264,14.1932235 L457.801264,29.4762622 L456.591664,29.7226353 L456.524383,31 L461.922649,31 L462.012195,29.7226353 L460.735476,29.4762622 L460.735476,24.6359261 C461.250649,24.9271529 461.967503,25.1064067 462.751314,25.1064067 C467.320753,25.1064067 467.365607,20.4677513 467.365607,18.3389714 L467.365607,18.3389714 Z" id="ModelHealth-Home-FeaturedIn-05"></path></g></g></g></g></g></g></g></svg> 