<?xml version="1.0" encoding="UTF-8"?> <svg xmlns="http://www.w3.org/2000/svg" xmlns:xlink="http://www.w3.org/1999/xlink" width="75px" height="32px" viewBox="0 0 75 32"><!-- Generator: sketchtool 53 (72520) - https://sketchapp.com --><title>48FF05E4-354F-4C97-82C7-9E1E42DC921C</title><desc>Created with sketchtool.</desc><g id="Design" stroke="none" stroke-width="1" fill="none" fill-rule="evenodd"><g id="Home-(Desktop)" transform="translate(-908.000000, -634.000000)" fill="#DEDEDF" fill-rule="nonzero"><g id="Header-01"><g id="Group-7"><g id="Group-27"><g id="Group-26" transform="translate(262.000000, 598.000000)"><g id="Group" transform="translate(0.000000, 33.000000)"><path d="M649.462446,35 C647.593289,35 646,33.8267433 646,31.1672823 C646,27.0618109 649.533044,23.9440523 651.135974,23.0623114 C651.135974,23.0623114 653.37874,24.3542954 655.705453,25.1856828 C651.082431,22.2608097 648.12834,16.9315798 648.12834,11.0167227 C648.12834,5.48874881 651.046242,3 653.680564,3 C655.799782,3 660.823999,5.33123682 660.823999,14.2767166 C660.823999,23.9024495 655.801265,35 649.46252,35 L649.462446,35 Z M695.481458,28.6014832 L693.292457,28.6014832 L693.292457,20.7530254 C693.292457,19.2399017 693.05871,18.1457718 692.591958,17.4691525 C692.124465,16.7926074 691.339204,16.4549651 690.236175,16.4549651 C689.30193,16.4549651 688.50777,16.8821163 687.853769,17.7364186 C687.199694,18.590721 686.87236,19.6137332 686.87236,20.8063452 L686.87236,28.6014832 L684.683358,28.6014832 L684.683358,20.4858335 C684.683358,17.7985632 683.646627,16.4549651 681.57309,16.4549651 C680.612148,16.4549651 679.820064,16.8574958 679.196765,17.6632245 C678.573465,18.4683599 678.26252,19.5167343 678.26252,20.8063452 L678.26252,28.6014832 L676.073519,28.6014832 L676.073519,14.9329425 L678.26252,14.9329425 L678.26252,17.0953952 L678.315914,17.0953952 C679.285606,15.4400362 680.700322,14.6124308 682.56058,14.6124308 C683.494825,14.6124308 684.309453,14.8728002 685.003203,15.3936131 C685.697546,15.9143519 686.173196,16.5971264 686.431489,17.4425297 C687.445751,15.556242 688.9588,14.6124308 690.970119,14.6124308 C693.977975,14.6124308 695.482126,16.4679428 695.482126,20.1789669 L695.482126,28.6014832 L695.481458,28.6014832 Z M720.08403,28.6014832 L717.895103,28.6014832 L717.895103,20.8063452 C717.895103,17.9052027 716.835754,16.4549651 714.718537,16.4549651 C713.623666,16.4549651 712.718788,16.8663948 712.0019,17.6899214 C711.285681,18.5127807 710.927571,19.552256 710.927571,20.8063452 L710.927571,28.6014832 L708.738569,28.6014832 L708.738569,14.9329425 L710.927571,14.9329425 L710.927571,17.2019606 L710.98089,17.2019606 C712.012802,15.4755579 713.508201,14.6124308 715.465533,14.6124308 C716.960117,14.6124308 718.104229,15.0949781 718.896313,16.0605919 C719.688397,17.0262056 720.08403,18.4211953 720.08403,20.2452643 L720.08403,28.6014832 Z M697.871428,25.7386063 L697.871354,25.7386063 C697.871354,25.7386063 699.407096,27.0036708 701.454604,27.0036708 C702.884373,27.0036708 703.990072,26.5163774 703.990072,25.1713703 C703.990072,22.2449399 697.893898,23.1231211 697.893898,18.6330653 C697.893898,16.4248569 699.727608,14.5871428 702.670427,14.5871428 C704.415888,14.5871428 705.626224,15.2575328 705.626224,15.2575328 L705.626224,17.428143 C705.626224,17.428143 704.324229,16.4849992 702.556298,16.4849992 C701.042507,16.4849992 700.140372,17.3051888 700.140372,18.4375843 C700.140372,21.4515214 706.255679,20.3655489 706.255679,24.9075896 C706.255679,27.0029292 704.743223,28.9234039 701.301467,28.9234039 C699.033858,28.9234039 697.871428,28.0834882 697.871428,28.0834882 L697.871428,25.7386063 Z M657.541239,31.9498737 L657.541313,31.9499479 C657.541313,30.8559663 657.931978,29.4718778 658.348377,28.3291001 C660.130101,23.7731177 661.472142,20.4535747 662.907103,17.5431624 C664.394865,14.7338277 666.740414,11.904767 668.381831,11.904767 C669.455493,11.904767 669.712377,12.6675581 669.712377,13.5734004 C669.712377,17.3154967 666.3232,21.9876109 663.495993,24.970105 C663.608714,29.5392135 660.638233,33.8911868 658.773674,33.8911868 C658.028607,33.8911868 657.541239,33.3450117 657.541239,31.9498737 Z" id="ModelHealth-Home-FeaturedIn-07"></path></g></g></g></g></g></g></g></svg> 