<?xml version="1.0" encoding="UTF-8"?> <svg xmlns="http://www.w3.org/2000/svg" xmlns:xlink="http://www.w3.org/1999/xlink" width="73px" height="18px" viewBox="0 0 73 18"><!-- Generator: sketchtool 53 (72520) - https://sketchapp.com --><title>52E577BE-9B4B-4582-B5B6-5DFE7088BF54</title><desc>Created with sketchtool.</desc><g id="Design" stroke="none" stroke-width="1" fill="none" fill-rule="evenodd"><g id="Home-(Desktop)" transform="translate(-379.000000, -641.000000)" fill="#DEDEDF" fill-rule="nonzero"><g id="Header-01"><g id="Group-7"><g id="Group-27"><g id="Group-26" transform="translate(262.000000, 598.000000)"><g id="Group" transform="translate(0.000000, 33.000000)"><path d="M119.287715,10.0081724 L134.973599,10.0081724 L134.308248,15.1395801 L118.649707,15.1395801 L119.287715,10.0081724 Z M118.36716,17.0262612 L134.071364,17.0262612 L133.58821,21.2006568 L123.772091,21.2006568 L123.516797,23.1967107 L133.351235,23.1967107 L132.740571,27.9635424 L117,27.9635424 L118.36716,17.0262612 L118.36716,17.0262612 Z M135.228802,15.1395801 C135.228802,15.1395801 135.338175,13.3896151 135.775666,12.478175 C136.185814,11.6214213 136.732678,11.0016421 137.653324,10.4821212 C138.200188,10.1904604 139.175429,10.0081724 139.175429,10.0081724 L167.430072,10.0081724 C167.430072,10.0081724 168.614944,10.0264012 169.125351,10.2360324 C169.672215,10.4638924 170.465168,10.8011253 170.88443,11.8219382 C171.294578,12.7971791 171.21264,13.1161831 171.21264,14.091424 C171.21264,15.0484361 171.185205,15.1395801 171.185205,15.1395801 L135.228802,15.1395801 Z M134.973599,17.0718332 L149.42913,17.0718332 C149.42913,17.0718332 150.714261,17.0718332 151.306697,17.4272948 C151.926476,17.8374429 152.209022,18.3387349 152.39131,19.1316878 C152.564393,19.9246407 152.081421,23.9258627 151.798874,24.9011036 C151.488985,25.8581158 151.124409,26.7604415 149.629556,27.5078223 C148.28983,28.1914024 146.257227,27.9635424 146.257227,27.9635424 L133.770498,27.9635424 L134.508856,23.1967107 L146.202632,23.1967107 L146.439606,21.1733136 L138.373362,21.1733136 C138.373362,21.1733136 137.060979,21.3556016 135.830535,20.2893079 C135.083154,19.6512998 135.001033,18.6760589 134.955461,18.247682 C134.900684,18.0015021 134.973599,17.0718332 134.973599,17.0718332 L134.973599,17.0718332 Z M153.776608,17.0718332 L170.829652,17.0718332 C170.829652,17.0718332 170.674708,19.0405438 170.209873,19.7423527 C169.744948,20.4715047 169.3348,20.863424 168.560075,21.0365065 C167.767123,21.2187945 166.58225,21.2187945 166.58225,21.2187945 L159.163219,21.2187945 L158.388495,27.9634513 L152.436791,27.9634513 L153.776608,17.0718332 Z M171.987273,15.1851522 L189.705577,15.1851522 C189.705577,15.1851522 190.04281,13.635704 189.860522,12.6604631 C189.678234,11.6852222 189.240743,11.0289853 188.520705,10.5550364 C187.572898,9.88968515 185.841162,10.0081724 185.868414,10.0081724 L172.707219,10.0081724 L171.987273,15.1851522 L171.987273,15.1851522 Z M171.759413,17.0718332 L177.628996,17.0718332 L176.289179,27.9635424 L170.465076,27.9635424 L171.759413,17.0718332 L171.759413,17.0718332 Z M183.553356,17.1174052 L189.368344,17.1174052 L188.028618,27.9635424 L182.240974,27.9635424 L183.553356,17.1174052 L183.553356,17.1174052 Z" id="ModelHealth-Home-FeaturedIn-02"></path></g></g></g></g></g></g></g></svg> 