<?xml version="1.0" encoding="UTF-8"?> <svg xmlns="http://www.w3.org/2000/svg" xmlns:xlink="http://www.w3.org/1999/xlink" width="77px" height="20px" viewBox="0 0 77 20"><!-- Generator: sketchtool 53 (72520) - https://sketchapp.com --><title>ED2C0219-FBE9-48D4-939E-DBA404DCD388</title><desc>Created with sketchtool.</desc><g id="Design" stroke="none" stroke-width="1" fill="none" fill-rule="evenodd"><g id="Home-(Desktop)" transform="translate(-262.000000, -640.000000)" fill="#DEDEDF" fill-rule="nonzero"><g id="Header-01"><g id="Group-7"><g id="Group-27"><g id="Group-26" transform="translate(262.000000, 598.000000)"><g id="Group" transform="translate(0.000000, 33.000000)"><path d="M18.9940171,28.9451561 C17.6613543,28.7512033 16.495769,28.1870969 15.6056967,27.3053785 C14.8632461,26.5699628 14.3818541,25.7612308 14.0270343,24.6531333 C13.4729856,22.923002 13.4728207,20.6986181 14.0264847,19.0037709 C14.5631112,17.3613002 15.7713452,15.9315786 17.250036,15.1892929 C19.2978344,14.1613267 22.1800309,14.2259044 24.0766901,15.3422458 C25.7835735,16.3469091 26.8174754,18.13211 27.1051894,20.5711116 C27.193015,21.3157605 27.1360218,22.8887071 26.9976882,23.5379461 C26.4314934,26.1954674 24.7825925,28.0518411 22.366784,28.7514781 C22.1064399,28.8268278 21.7027609,28.9150931 21.4697317,28.9474644 C20.9765784,29.016109 19.4713421,29.0146801 18.9940171,28.9451561 Z M19.7929663,27.9589592 C20.1567995,28.1239483 20.8225813,28.1148249 21.1988904,27.9395035 C22.237134,27.456078 22.7937659,26.064993 22.9752428,23.5001338 C23.2281673,19.9259397 22.6420771,16.9426722 21.4808336,15.8936015 C20.958002,15.4212229 20.1448183,15.2665663 19.5580136,15.5279546 C18.7019613,15.909265 18.1521994,17.0380823 17.8919103,18.9488112 C17.7065862,20.3094484 17.7258221,23.0862323 17.9292279,24.3348617 C18.2500277,26.3045624 18.8901983,27.5494545 19.7929663,27.9589592 Z M42.5981638,28.9444966 C42.0529086,28.8892071 40.3867503,28.6119354 39.8047271,28.4795925 L39.4020924,28.3880296 L39.4334744,26.2378413 C39.5090989,21.0609124 39.5186069,18.2347747 39.4696378,15.4863501 C39.421713,12.7939844 39.4077532,12.5093481 39.3038794,12.1110551 C39.1723059,11.6064152 38.9824201,11.2544533 38.7540626,11.0918275 C38.6653576,11.0286788 38.4243044,10.9391495 38.2184253,10.8928734 C37.5341221,10.7391511 37.5712749,10.7637731 37.5530282,10.451602 C37.5425309,10.2717738 37.5619867,10.152951 37.6079879,10.1165127 C37.6696527,10.0675985 43.2825769,8.99698361 43.4613608,9.00000639 C43.5127481,9.00088574 43.5200028,9.7185495 43.4936771,12.1888231 C43.4749908,13.9420375 43.4725726,15.3764857 43.488346,15.3764857 C43.5040645,15.3764857 43.7091741,15.2876708 43.9441268,15.1791254 C44.6522825,14.8519503 45.3049839,14.7099894 46.2529838,14.6769037 C46.884086,14.6549198 47.1765266,14.6687147 47.5002941,14.7356556 C49.6175066,15.1737393 51.1842978,16.9066736 51.7318063,19.4159686 C51.8746465,20.0705386 51.9277376,21.6974556 51.8329871,22.5122881 C51.7521414,23.2068139 51.5215305,24.1426127 51.2815764,24.7498624 C50.3760055,27.0414071 48.433235,28.5363658 45.855845,28.9248759 C45.2621703,29.0142954 43.3978824,29.0255621 42.5981638,28.9444966 Z M43.7427545,27.9773158 C44.2387658,28.0297473 44.7958922,28.0115007 45.0557417,27.9342823 C45.4586512,27.8145801 45.9738984,27.4484386 46.2842009,27.0614673 C46.9241516,26.2629579 47.3838895,25.0271341 47.6365942,23.4257733 C47.7575605,22.6588107 47.7739385,20.503676 47.6634145,19.8831261 C47.3242582,17.9781679 46.6710622,16.8142864 45.6768412,16.3431169 C45.1817643,16.1084389 44.4833914,16.0794202 43.834702,16.2663931 L43.3950244,16.3931851 L43.345231,18.1244157 C43.282467,20.3071401 43.3844722,27.7676995 43.4786731,27.8812462 C43.5128031,27.9223561 43.6316809,27.9656094 43.7427545,27.9773158 Z M58.3990773,28.9172366 C55.6724717,28.4255121 53.7225015,26.49192 53.0853538,23.6483051 C53.0034088,23.2826033 52.9671904,22.8732635 52.9466355,22.081514 C52.9140993,20.8289275 53.0159946,20.0514127 53.3392676,19.0853311 C53.9599824,17.2304412 55.0723667,15.916025 56.6882918,15.1282327 C58.3938562,14.2967474 60.7256863,14.2422824 62.2350995,14.9986927 C63.9345633,15.8503482 64.9345001,17.5508563 65.188194,20.0205253 C65.222379,20.3530864 65.2421095,20.7487413 65.2322167,20.8998805 L65.214135,21.174679 L61.1471173,21.1887487 L57.0800995,21.2028733 L57.0955432,21.683386 C57.1314868,22.7965397 57.3707814,23.7811977 57.8134817,24.63714 C58.0146892,25.0262547 58.1748418,25.2383442 58.5639564,25.6311412 C59.4428719,26.5186304 60.3172808,26.8621285 61.6966593,26.8621285 C62.6967609,26.8621285 63.4159636,26.6625698 64.168197,26.1762864 C64.3788575,26.0400413 64.5923759,25.928638 64.6425541,25.928638 C64.7573649,25.928638 65.0217211,26.2688935 65.0217211,26.4167351 C65.0217211,26.6589975 64.2331593,27.4399198 63.4640533,27.9594539 C62.8341602,28.3849519 61.8351577,28.7703293 60.9689379,28.9217982 C60.3622927,29.0280353 58.9994571,29.0255621 58.3990773,28.9172366 Z M56.9781493,20.1159353 C57.0081023,20.1644648 59.4720555,20.1320935 60.6193942,20.0681754 L61.1909751,20.0362987 L61.1577245,19.1765642 C61.0903439,17.4348363 60.7501983,16.2582041 60.1557542,15.7102559 C59.9342666,15.5061356 59.6367148,15.37742 59.3845597,15.3767605 C59.3219606,15.3765956 59.1376807,15.4160017 58.9749451,15.4643113 C58.7385084,15.5345498 58.6062204,15.625618 58.316308,15.9177288 C57.7772083,16.4607856 57.3855106,17.3427239 57.1408849,18.5640933 C57.0393194,19.0708217 56.9367646,20.0490494 56.9781493,20.1159353 Z M69.3910172,28.9706024 C68.4118552,28.8656294 66.8535279,28.5244945 66.3346534,28.3014131 L66.0812342,28.1925929 L66.0466645,26.9369836 C66.0276485,26.24647 66.0057745,25.3230921 65.9979702,24.8851732 L65.9837906,24.088972 L66.1356992,24.0161504 C66.219238,23.9761397 66.3877994,23.9387122 66.5103595,23.9329964 L66.7331112,23.922664 L66.922887,24.3898214 C67.663359,26.212285 68.5317773,27.1949095 69.6660355,27.4937803 C70.0987332,27.6078767 70.9100483,27.6088659 71.2303535,27.4957039 C72.1276255,27.1790261 72.6196797,26.4995594 72.6239665,25.5714549 C72.6290228,24.4722609 72.0248509,23.9441532 69.7423196,23.052542 C68.3282065,22.5001421 67.8348883,22.2158905 67.247534,21.6146863 C66.6139036,20.9661069 66.3098116,20.2279432 66.2527084,19.1997022 C66.183734,17.9572832 66.5725189,16.9098613 67.4342321,16.0173707 C68.3013312,15.1191644 69.4270158,14.6323313 70.9605013,14.4924039 C72.3108611,14.3691843 74.3836662,14.6555793 75.4697248,15.1154271 L75.6678545,15.1992956 L75.7031936,16.318385 C75.7226494,16.9338787 75.7427646,17.7589337 75.7478759,18.1518955 L75.757219,18.8663167 L75.4911041,18.9651342 C75.0704426,19.1213297 75.0427429,19.101764 74.8087245,18.4817087 C74.1527255,16.7436631 73.3905994,15.9213012 72.2030852,15.6700804 C71.4793758,15.5169627 70.8748192,15.681567 70.4353614,16.1513625 C70.0925778,16.5178337 69.9588058,16.8433051 69.9264346,17.3898243 C69.8912604,17.9819601 69.9971128,18.3020454 70.3589125,18.6979201 C70.8048005,19.1858523 71.5353798,19.6070085 72.9907676,20.2151926 C74.7733305,20.9600614 75.6237769,21.5924277 76.0861528,22.51663 C76.3864526,23.1168998 76.4714753,23.5963133 76.4413024,24.5191416 C76.418604,25.2116338 76.3964553,25.3539244 76.2388858,25.8188285 C75.7252325,27.334617 74.5658026,28.3325753 72.7745561,28.8005021 C72.167856,28.958951 72.0812395,28.967085 70.8748192,28.9803852 C70.1796339,28.9878598 69.5118736,28.9835729 69.3910172,28.9706024 L69.3910172,28.9706024 Z M0.0730414404,28.6402946 C0.0273699303,28.6218282 0.00434181625,28.4848686 0.00434181625,28.2313395 C0.00434181625,27.7758885 -0.0246219453,27.7962785 0.856217156,27.6328833 C1.5318917,27.5075203 1.7735495,27.3793542 2.07192571,26.9882061 C2.65037654,26.2297073 2.77540986,24.769428 2.77672889,18.7565072 C2.777938,13.1096179 2.6691178,11.921719 2.07088147,11.0489589 C1.80542612,10.6617679 1.35810913,10.451492 0.608843549,10.3617978 L0.0317667062,10.2927135 L0.0159383128,9.84215386 L0,9.39164921 L0.180817411,9.35944282 C0.280294467,9.3417458 3.77391767,9.33427128 7.94453446,9.34279003 L15.5274891,9.35839859 L15.562993,9.57823739 C15.5825587,9.69914872 15.6146551,10.9393693 15.6343307,12.3342465 L15.6700545,14.8704168 L15.2791262,14.9891847 C14.6906177,15.1679136 14.6941351,15.170112 14.4293943,14.4695957 C13.7791111,12.7489174 13.0334179,11.7574444 12.0130361,11.2567616 C11.3092772,10.9114498 10.9839158,10.8697354 8.99651806,10.8697354 L7.26693633,10.8697354 L7.23709321,11.1582738 C7.18114424,11.699352 7.09293392,15.1800047 7.09353847,16.8191228 L7.09414303,18.4541739 L7.60252025,18.451261 C7.8821552,18.4496672 8.4335109,18.4291122 8.82779179,18.4055345 C9.42042223,18.3700855 9.59656806,18.3386486 9.84454623,18.2238378 C10.4537745,17.9417846 10.8682256,17.3210697 11.1221944,16.3103609 L11.2532732,15.7885735 L11.7018543,15.7725802 L12.1504354,15.7565869 L12.1504354,22.3607093 L11.7016894,22.344716 L11.2529435,22.3287228 L11.1255469,21.8066056 C10.8862524,20.825575 10.4256351,20.1232999 9.85647248,19.8715296 C9.59360024,19.7552898 8.94320716,19.6891733 7.6849598,19.6509213 L7.09414303,19.6328945 L7.09414303,20.8734449 C7.09414303,22.2252336 7.1685035,24.0540176 7.26374866,25.0465348 C7.3965313,26.4302002 7.750142,27.1946897 8.38509141,27.4714117 C8.50633251,27.524228 8.89000617,27.6099651 9.23757131,27.6620669 C9.5851914,27.7141138 9.91291609,27.7790761 9.96578732,27.8064461 C10.0999439,27.8756953 10.1078581,28.5923148 9.97507551,28.6432075 C9.87109176,28.6832182 0.172078819,28.6801954 0.0730414404,28.6402946 Z M27.1654802,28.6298523 C27.1153569,28.5979757 27.098979,28.4711836 27.1105205,28.2045741 L27.1270084,27.8248026 L27.3193673,27.7839126 C27.4251648,27.7613791 27.6524231,27.716587 27.8243371,27.6844905 C28.3565118,27.5850684 28.6623076,27.2962552 28.8344414,26.7304451 C28.9746436,26.269608 29.0364183,24.7951492 29.0396059,21.8341954 C29.043563,18.2129557 28.9681034,17.3577279 28.6019619,16.8729833 C28.4035024,16.610221 28.2604423,16.5355308 27.7788854,16.4430886 C27.5412397,16.397472 27.291173,16.3485579 27.2231879,16.3343783 C27.1130486,16.3114601 27.0995286,16.2755714 27.0995286,16.0062139 C27.0995286,15.7443309 27.1160714,15.6970106 27.2231879,15.652933 C27.3876273,15.5853325 32.8322649,14.4970206 33.0062123,14.4970206 L33.1419078,14.4970206 L33.1153073,15.3076761 C33.1006331,15.7535092 33.0772752,16.4027481 33.0633154,16.7503682 L33.0379241,17.3824048 L33.2351744,17.0267056 C33.8666064,15.8880505 34.5747072,15.1811589 35.5163317,14.7496703 C36.0332277,14.512739 36.3781548,14.4420609 37.0167315,14.4420609 C37.7740762,14.4420609 38.5312559,14.6891597 38.5312559,14.9363684 C38.5312559,15.1025665 37.1968894,18.6283412 37.1232984,18.6565355 C37.0874097,18.6702754 36.8268457,18.5706884 36.5442979,18.4350479 C35.95502,18.1522802 35.4022354,18.0140566 34.8656089,18.0152108 C34.1972989,18.0166397 33.4507813,18.2628042 33.1560874,18.5789324 C33.0300099,18.7141332 33.0294053,18.7222673 32.9980783,20.7415416 C32.967081,22.7412503 33.0336922,25.1804716 33.1461397,26.1615023 C33.2419345,26.9972744 33.4640266,27.4087027 33.9226653,27.6003472 C34.0756731,27.6642104 35.0437333,27.7968831 35.3596416,27.7972128 C35.383604,27.7972128 35.395915,27.9889123 35.3871215,28.2231505 L35.3710732,28.6490882 L31.3040555,28.6621686 C29.0670858,28.6694782 27.2047764,28.6549689 27.1654802,28.6298523 L27.1654802,28.6298523 Z" id="ModelHealth-Home-FeaturedIn-01"></path></g></g></g></g></g></g></g></svg> 